# xmcd CD database file
#
# Track frame offsets:
#	150
#	18329
#	39161
#	58551
#	78298
#	96451
#	115576
#	130351
#	153140
#
# Disc length: 2108 seconds
#
# Revision: 0
# Processed by: cddbd v1.5.1PL2 Copyright (c) Steve Scherf et al.
# Submitted via: CDex 1.51
#
DISCID=62083a09
DTITLE=Robin Horn - Collection
DYEAR=2003
DGENRE=Jazz
TTITLE0=Time For A Change
TTITLE1=Crimson Glow
TTITLE2=Moonlight
TTITLE3=Hip Hop for Robin
TTITLE4=Hyperspace
TTITLE5=I'll Always Be With You
TTITLE6=Brother To Brother
TTITLE7=Perfect Love
TTITLE8=Beginning To Fly
EXTD=YEAR: 2003
EXTT0=
EXTT1=
EXTT2=
EXTT3=
EXTT4=
EXTT5=
EXTT6=
EXTT7=
EXTT8=
PLAYORDER=
